<?xml version="1.0" encoding="UTF-8"?>
<svg version="1.1" xmlns="http://www.w3.org/2000/svg" width="32" height="32">
<path d="M0 0 C2.25 0.25 2.25 0.25 4 1 C6.00602647 8.18826151 3.4002564 14.14948282 1 21 C1.66 21 2.32 21 3 21 C3 22.32 3 23.64 3 25 C2.01 25 1.02 25 0 25 C0 27.31 0 29.62 0 32 C-1.32 32 -2.64 32 -4 32 C-4.33 29.69 -4.66 27.38 -5 25 C-8.40614946 25.02126462 -8.40614946 25.02126462 -12 26 C-14.01041003 28.93449408 -14.01041003 28.93449408 -15 32 C-16.32 32 -17.64 32 -19 32 C-18.70703125 30.01432292 -18.4140625 28.02864583 -18.12109375 26.04296875 C-17.86095201 23.7974658 -17.86095201 23.7974658 -19 21 C-17.68 21 -16.36 21 -15 21 C-14.76023437 20.30003906 -14.52046875 19.60007812 -14.2734375 18.87890625 C-12.77948694 15.50147814 -10.86065795 12.87505057 -8.625 9.9375 C-7.46871094 8.40416016 -7.46871094 8.40416016 -6.2890625 6.83984375 C-4.29835046 4.37013785 -2.39112628 2.0834075 0 0 Z M-4 13 C-7.000533 16.07449747 -7.000533 16.07449747 -8 20 C-6.68 20 -5.36 20 -4 20 C-3.67 17.69 -3.34 15.38 -3 13 C-3.33 13 -3.66 13 -4 13 Z " fill="#19507C" transform="translate(23,0)"/>
</svg>
