<svg xmlns="http://www.w3.org/2000/svg" width="2000" zoomAndPan="magnify" viewBox="0 0 1500 209.999996" height="280" preserveAspectRatio="xMidYMid meet" version="1.0"><g fill="#000000" fill-opacity="1"><g transform="translate(266.392937, 194.624988)"><g><path d="M 68.609375 0 L 16.859375 0 L 16.859375 -181.125 L 68.84375 -181.125 C 99.226562 -181.125 122.488281 -173.289062 138.625 -157.625 C 154.769531 -141.957031 162.84375 -119.566406 162.84375 -90.453125 C 162.84375 -61.484375 154.769531 -39.164062 138.625 -23.5 C 122.488281 -7.832031 99.148438 0 68.609375 0 Z M 47 -154.0625 L 47 -27.0625 L 68.375 -27.0625 C 80.71875 -27.0625 91.710938 -28.921875 101.359375 -32.640625 C 111.015625 -36.359375 118.648438 -42.847656 124.265625 -52.109375 C 129.890625 -61.367188 132.703125 -74.148438 132.703125 -90.453125 C 132.703125 -105.640625 130.007812 -117.898438 124.625 -127.234375 C 119.25 -136.578125 111.734375 -143.382812 102.078125 -147.65625 C 92.421875 -151.925781 81.1875 -154.0625 68.375 -154.0625 Z M 47 -154.0625 "/></g></g></g><g fill="#000000" fill-opacity="1"><g transform="translate(439.692824, 194.624988)"><g><path d="M 29.4375 -149.796875 C 24.53125 -149.796875 20.253906 -151.414062 16.609375 -154.65625 C 12.972656 -157.90625 11.15625 -161.984375 11.15625 -166.890625 C 11.15625 -171.953125 12.972656 -176.066406 16.609375 -179.234375 C 20.253906 -182.398438 24.53125 -183.984375 29.4375 -183.984375 C 34.5 -183.984375 38.8125 -182.398438 42.375 -179.234375 C 45.9375 -176.066406 47.71875 -171.953125 47.71875 -166.890625 C 47.71875 -161.984375 45.9375 -157.90625 42.375 -154.65625 C 38.8125 -151.414062 34.5 -149.796875 29.4375 -149.796875 Z M 43.4375 0 L 15.4375 0 L 15.4375 -132.703125 L 43.4375 -132.703125 Z M 43.4375 0 "/></g></g></g><g fill="#000000" fill-opacity="1"><g transform="translate(498.329875, 194.624988)"><g><path d="M 43.4375 0 L 15.4375 0 L 15.4375 -132.703125 L 43.4375 -132.703125 L 43.4375 -114.65625 C 49.132812 -122.25 55.03125 -127.550781 61.125 -130.5625 C 67.21875 -133.570312 73.664062 -135.078125 80.46875 -135.078125 C 89.175781 -135.078125 96.734375 -133.21875 103.140625 -129.5 C 109.554688 -125.78125 113.867188 -120.203125 116.078125 -112.765625 C 120.515625 -120.992188 126.132812 -126.769531 132.9375 -130.09375 C 139.738281 -133.414062 147.335938 -135.078125 155.734375 -135.078125 C 170.765625 -135.078125 181.835938 -130.800781 188.953125 -122.25 C 196.078125 -113.707031 199.640625 -101.921875 199.640625 -86.890625 L 199.640625 0 L 171.640625 0 L 171.640625 -82.609375 C 171.640625 -92.421875 169.617188 -99.703125 165.578125 -104.453125 C 161.546875 -109.203125 155.96875 -111.578125 148.84375 -111.578125 C 141.09375 -111.578125 135.078125 -109.203125 130.796875 -104.453125 C 127.316406 -100.492188 124.90625 -95.425781 123.5625 -89.25 C 122.21875 -83.082031 121.546875 -75.566406 121.546875 -66.703125 L 121.546875 0 L 93.53125 0 L 93.53125 -82.609375 C 93.53125 -92.265625 91.472656 -99.503906 87.359375 -104.328125 C 83.242188 -109.160156 77.546875 -111.578125 70.265625 -111.578125 C 62.671875 -111.578125 56.816406 -109.046875 52.703125 -103.984375 C 49.691406 -100.492188 47.394531 -95.898438 45.8125 -90.203125 C 44.226562 -84.503906 43.4375 -76.671875 43.4375 -66.703125 Z M 43.4375 0 "/></g></g></g><g fill="#000000" fill-opacity="1"><g transform="translate(712.224604, 194.624988)"><g><path d="M 76.671875 2.609375 C 63.535156 2.609375 51.941406 -0.316406 41.890625 -6.171875 C 31.847656 -12.023438 24.015625 -20.175781 18.390625 -30.625 C 12.773438 -41.070312 9.96875 -53.175781 9.96875 -66.9375 C 9.96875 -80.238281 12.773438 -92.03125 18.390625 -102.3125 C 24.015625 -112.601562 31.847656 -120.632812 41.890625 -126.40625 C 51.941406 -132.1875 63.535156 -135.078125 76.671875 -135.078125 C 89.804688 -135.078125 101.398438 -132.1875 111.453125 -126.40625 C 121.503906 -120.632812 129.378906 -112.601562 135.078125 -102.3125 C 140.773438 -92.03125 143.625 -80.238281 143.625 -66.9375 C 143.625 -53.332031 140.8125 -41.304688 135.1875 -30.859375 C 129.570312 -20.410156 121.738281 -12.21875 111.6875 -6.28125 C 101.644531 -0.351562 89.972656 2.609375 76.671875 2.609375 Z M 76.671875 -21.84375 C 84.109375 -21.84375 90.710938 -23.78125 96.484375 -27.65625 C 102.265625 -31.53125 106.773438 -36.867188 110.015625 -43.671875 C 113.265625 -50.484375 114.890625 -58.238281 114.890625 -66.9375 C 114.890625 -75.332031 113.265625 -82.851562 110.015625 -89.5 C 106.773438 -96.144531 102.265625 -101.363281 96.484375 -105.15625 C 90.710938 -108.957031 84.109375 -110.859375 76.671875 -110.859375 C 69.234375 -110.859375 62.625 -109 56.84375 -105.28125 C 51.070312 -101.5625 46.5625 -96.378906 43.3125 -89.734375 C 40.070312 -83.085938 38.453125 -75.488281 38.453125 -66.9375 C 38.453125 -58.082031 40.113281 -50.25 43.4375 -43.4375 C 46.757812 -36.632812 51.304688 -31.332031 57.078125 -27.53125 C 62.859375 -23.738281 69.390625 -21.84375 76.671875 -21.84375 Z M 76.671875 -21.84375 "/></g></g></g><g fill="#000000" fill-opacity="1"><g transform="translate(865.820514, 194.624988)"><g><path d="M 71.21875 2.609375 C 60.769531 2.609375 51.070312 0.910156 42.125 -2.484375 C 33.1875 -5.890625 25.789062 -10.992188 19.9375 -17.796875 C 14.082031 -24.609375 10.363281 -33.316406 8.78125 -43.921875 L 37.03125 -43.921875 C 38.925781 -36.484375 42.800781 -30.664062 48.65625 -26.46875 C 54.519531 -22.269531 62.039062 -20.171875 71.21875 -20.171875 C 78.65625 -20.171875 84.785156 -21.632812 89.609375 -24.5625 C 94.441406 -27.5 96.859375 -31.65625 96.859375 -37.03125 C 96.859375 -41.625 95.3125 -45.144531 92.21875 -47.59375 C 89.132812 -50.050781 85.0625 -52.03125 80 -53.53125 C 74.9375 -55.03125 69.476562 -56.335938 63.625 -57.453125 C 57.925781 -58.554688 52.1875 -59.859375 46.40625 -61.359375 C 40.632812 -62.867188 35.296875 -64.96875 30.390625 -67.65625 C 25.484375 -70.34375 21.566406 -73.941406 18.640625 -78.453125 C 15.710938 -82.960938 14.25 -88.859375 14.25 -96.140625 C 14.25 -105.003906 16.539062 -112.320312 21.125 -118.09375 C 25.71875 -123.875 31.847656 -128.148438 39.515625 -130.921875 C 47.191406 -133.691406 55.539062 -135.078125 64.5625 -135.078125 C 79.601562 -135.078125 92.226562 -131.238281 102.4375 -123.5625 C 112.644531 -115.882812 118.9375 -105.082031 121.3125 -91.15625 L 94.953125 -91.15625 C 92.898438 -98.59375 89.140625 -104.007812 83.671875 -107.40625 C 78.210938 -110.8125 71.84375 -112.515625 64.5625 -112.515625 C 57.445312 -112.515625 51.832031 -111.171875 47.71875 -108.484375 C 43.601562 -105.796875 41.546875 -102.15625 41.546875 -97.5625 C 41.546875 -93.601562 43.046875 -90.476562 46.046875 -88.1875 C 49.054688 -85.894531 52.972656 -84.113281 57.796875 -82.84375 C 62.628906 -81.582031 67.894531 -80.394531 73.59375 -79.28125 C 79.445312 -78.175781 85.378906 -76.867188 91.390625 -75.359375 C 97.410156 -73.859375 102.910156 -71.722656 107.890625 -68.953125 C 112.878906 -66.191406 116.914062 -62.472656 120 -57.796875 C 123.082031 -53.128906 124.625 -47 124.625 -39.40625 C 124.625 -26.90625 119.957031 -16.773438 110.625 -9.015625 C 101.289062 -1.265625 88.15625 2.609375 71.21875 2.609375 Z M 71.21875 2.609375 "/></g></g></g><g fill="#000000" fill-opacity="1"><g transform="translate(1000.899473, 194.624988)"><g><path d="M 29.4375 -149.796875 C 24.53125 -149.796875 20.253906 -151.414062 16.609375 -154.65625 C 12.972656 -157.90625 11.15625 -161.984375 11.15625 -166.890625 C 11.15625 -171.953125 12.972656 -176.066406 16.609375 -179.234375 C 20.253906 -182.398438 24.53125 -183.984375 29.4375 -183.984375 C 34.5 -183.984375 38.8125 -182.398438 42.375 -179.234375 C 45.9375 -176.066406 47.71875 -171.953125 47.71875 -166.890625 C 47.71875 -161.984375 45.9375 -157.90625 42.375 -154.65625 C 38.8125 -151.414062 34.5 -149.796875 29.4375 -149.796875 Z M 43.4375 0 L 15.4375 0 L 15.4375 -132.703125 L 43.4375 -132.703125 Z M 43.4375 0 "/></g></g></g><g fill="#000000" fill-opacity="1"><g transform="translate(1059.53657, 194.624988)"><g><path d="M 53.171875 2.609375 C 40.515625 2.609375 30.148438 -0.75 22.078125 -7.46875 C 14.003906 -14.195312 9.96875 -23.734375 9.96875 -36.078125 C 9.96875 -42.566406 11.269531 -48.222656 13.875 -53.046875 C 16.488281 -57.878906 20.015625 -61.957031 24.453125 -65.28125 C 28.566406 -68.289062 33.234375 -70.703125 38.453125 -72.515625 C 43.679688 -74.335938 49.300781 -75.804688 55.3125 -76.921875 L 97.328125 -84.75 C 97.171875 -93.613281 94.796875 -100.414062 90.203125 -105.15625 C 85.296875 -110.0625 78.648438 -112.515625 70.265625 -112.515625 C 63.617188 -112.515625 57.722656 -110.613281 52.578125 -106.8125 C 47.429688 -103.019531 44.226562 -97.722656 42.96875 -90.921875 L 14.953125 -90.921875 C 16.535156 -100.890625 20.097656 -109.117188 25.640625 -115.609375 C 31.179688 -122.097656 37.90625 -126.960938 45.8125 -130.203125 C 53.726562 -133.453125 61.957031 -135.078125 70.5 -135.078125 C 78.257812 -135.078125 85.617188 -134.007812 92.578125 -131.875 C 99.546875 -129.738281 105.484375 -126.375 110.390625 -121.78125 C 115.296875 -117.1875 118.773438 -112 120.828125 -106.21875 C 122.890625 -100.445312 124.117188 -94.554688 124.515625 -88.546875 C 124.910156 -82.535156 125.109375 -76.992188 125.109375 -71.921875 L 125.109375 0 L 97.09375 0 L 97.09375 -18.984375 C 93.613281 -12.972656 89.179688 -8.226562 83.796875 -4.75 C 79.679688 -2.0625 75.050781 -0.164062 69.90625 0.9375 C 64.769531 2.050781 59.191406 2.609375 53.171875 2.609375 Z M 59.34375 -20.171875 C 65.832031 -20.171875 71.925781 -21.519531 77.625 -24.21875 C 85.539062 -28.175781 90.84375 -33.359375 93.53125 -39.765625 C 96.21875 -46.171875 97.5625 -54.125 97.5625 -63.625 L 62.203125 -56.734375 C 53.015625 -54.835938 46.523438 -52.148438 42.734375 -48.671875 C 39.566406 -45.503906 37.984375 -41.546875 37.984375 -36.796875 C 37.984375 -31.410156 39.960938 -27.289062 43.921875 -24.4375 C 47.878906 -21.59375 53.019531 -20.171875 59.34375 -20.171875 Z M 59.34375 -20.171875 "/></g></g></g><g fill="#000000" fill-opacity="1"><g transform="translate(1198.651218, 194.624988)"><g><path d="M 43.4375 0 L 15.4375 0 L 15.4375 -132.703125 L 43.4375 -132.703125 L 43.4375 -116.078125 C 48.976562 -123.203125 54.875 -128.148438 61.125 -130.921875 C 67.375 -133.691406 74.613281 -135.078125 82.84375 -135.078125 L 85.9375 -135.078125 L 85.9375 -107.78125 L 78.8125 -107.78125 C 68.207031 -107.78125 60.054688 -104.929688 54.359375 -99.234375 C 47.078125 -92.421875 43.4375 -80.707031 43.4375 -64.09375 Z M 43.4375 0 "/></g></g></g><g fill="#000000" fill-opacity="1"><g transform="translate(1289.336851, 194.624988)"><g><path d="M 29.4375 -149.796875 C 24.53125 -149.796875 20.253906 -151.414062 16.609375 -154.65625 C 12.972656 -157.90625 11.15625 -161.984375 11.15625 -166.890625 C 11.15625 -171.953125 12.972656 -176.066406 16.609375 -179.234375 C 20.253906 -182.398438 24.53125 -183.984375 29.4375 -183.984375 C 34.5 -183.984375 38.8125 -182.398438 42.375 -179.234375 C 45.9375 -176.066406 47.71875 -171.953125 47.71875 -166.890625 C 47.71875 -161.984375 45.9375 -157.90625 42.375 -154.65625 C 38.8125 -151.414062 34.5 -149.796875 29.4375 -149.796875 Z M 43.4375 0 L 15.4375 0 L 15.4375 -132.703125 L 43.4375 -132.703125 Z M 43.4375 0 "/></g></g></g><g fill="#000000" fill-opacity="1"><g transform="translate(1347.973994, 194.624988)"><g><path d="M 71.21875 2.609375 C 60.769531 2.609375 51.070312 0.910156 42.125 -2.484375 C 33.1875 -5.890625 25.789062 -10.992188 19.9375 -17.796875 C 14.082031 -24.609375 10.363281 -33.316406 8.78125 -43.921875 L 37.03125 -43.921875 C 38.925781 -36.484375 42.800781 -30.664062 48.65625 -26.46875 C 54.519531 -22.269531 62.039062 -20.171875 71.21875 -20.171875 C 78.65625 -20.171875 84.785156 -21.632812 89.609375 -24.5625 C 94.441406 -27.5 96.859375 -31.65625 96.859375 -37.03125 C 96.859375 -41.625 95.3125 -45.144531 92.21875 -47.59375 C 89.132812 -50.050781 85.0625 -52.03125 80 -53.53125 C 74.9375 -55.03125 69.476562 -56.335938 63.625 -57.453125 C 57.925781 -58.554688 52.1875 -59.859375 46.40625 -61.359375 C 40.632812 -62.867188 35.296875 -64.96875 30.390625 -67.65625 C 25.484375 -70.34375 21.566406 -73.941406 18.640625 -78.453125 C 15.710938 -82.960938 14.25 -88.859375 14.25 -96.140625 C 14.25 -105.003906 16.539062 -112.320312 21.125 -118.09375 C 25.71875 -123.875 31.847656 -128.148438 39.515625 -130.921875 C 47.191406 -133.691406 55.539062 -135.078125 64.5625 -135.078125 C 79.601562 -135.078125 92.226562 -131.238281 102.4375 -123.5625 C 112.644531 -115.882812 118.9375 -105.082031 121.3125 -91.15625 L 94.953125 -91.15625 C 92.898438 -98.59375 89.140625 -104.007812 83.671875 -107.40625 C 78.210938 -110.8125 71.84375 -112.515625 64.5625 -112.515625 C 57.445312 -112.515625 51.832031 -111.171875 47.71875 -108.484375 C 43.601562 -105.796875 41.546875 -102.15625 41.546875 -97.5625 C 41.546875 -93.601562 43.046875 -90.476562 46.046875 -88.1875 C 49.054688 -85.894531 52.972656 -84.113281 57.796875 -82.84375 C 62.628906 -81.582031 67.894531 -80.394531 73.59375 -79.28125 C 79.445312 -78.175781 85.378906 -76.867188 91.390625 -75.359375 C 97.410156 -73.859375 102.910156 -71.722656 107.890625 -68.953125 C 112.878906 -66.191406 116.914062 -62.472656 120 -57.796875 C 123.082031 -53.128906 124.625 -47 124.625 -39.40625 C 124.625 -26.90625 119.957031 -16.773438 110.625 -9.015625 C 101.289062 -1.265625 88.15625 2.609375 71.21875 2.609375 Z M 71.21875 2.609375 "/></g></g></g><g fill="#000000" fill-opacity="1"><g transform="matrix(0.174375, 0, 0, 0.174375, 28.938414, 0)"><rect x="30" y="99" width="185" height="999"/><rect x="370" y="99" width="185" height="999"/><path fill-rule="evenodd" d="M 716 95 L 737 95 C 790 95, 870 115, 901 129 C 940 145, 1010 185, 1047 215 C 1085 250, 1135 320, 1159 387 C 1175 430, 1193 500, 1193 598 C 1193 696, 1175 766, 1159 811 C 1135 876, 1085 946, 1047 983 C 1010 1013, 940 1053, 901 1069 C 870 1083, 790 1101, 729 1101 L 716 1101 Z M 716 283 C 716 281, 813 294, 832 304 C 857 314, 901 338, 924 357 C 948 379, 978 424, 989 468 C 998 495, 1009 538, 1005 598 C 1009 658, 998 701, 990 730 C 978 772, 948 817, 924 840 C 901 860, 857 884, 832 894 C 813 904, 763 915, 716 913 Z"/></g></g></svg>