<?xml version="1.0" encoding="UTF-8"?> <svg xmlns="http://www.w3.org/2000/svg" xmlns:xlink="http://www.w3.org/1999/xlink" version="1.1" id="Layer_1" x="0px" y="0px" viewBox="0 0 250 142" style="enable-background:new 0 0 250 142;" xml:space="preserve"> <style type="text/css"> .st0{fill:#0a2a4c;} </style> <g> <g> <g> <path class="st0" d="M232.67,104.69c-4.82-1.07-9.42-2.14-14.12-3.39c-2.51,1.51-5.29,2.88-8.2,4.19 c-1.14-2.96-2.14-5.63-3.56-8.35c-4.09-1.84-8.05-3.66-11.89-5.46c3.21-0.24,6.58-0.48,9.69-0.94c-0.29-2.1-0.95-4.25-1.55-6.23 c3.55,1.86,7.09,3.75,10.75,5.74c3.78,0.08,7.32-0.04,11.06-0.17c-0.46,2.06-0.97,4.21-1.83,6.3 C226.28,99.05,229.44,101.78,232.67,104.69z"></path> </g> <g> <path class="st0" d="M210.17,121.83c-5.14-2.14-9.97-4.23-14.72-6.44c-3.96,0.92-8.03,1.72-12.28,2.34 c0.62-3.08,1.11-5.95,1.21-8.88c-3.54-2.62-6.92-5.18-10.14-7.67c3.82,0.42,7.78,0.79,11.66,0.97c1.01-2.13,1.6-4.37,2.15-6.45 c2.95,2.5,5.93,5.09,8.94,7.77c4.38,0.79,8.81,1.44,13.36,2.02c-1.92,2-3.94,4.06-6.37,5.95 C206.14,114.77,208.22,118.25,210.17,121.83z"></path> </g> <g> <path class="st0" d="M172.66,133.5c-4.43-3.23-8.57-6.38-12.41-9.44c-4.9-0.05-9.76-0.08-14.67-0.46 c2.52-2.66,4.71-5.38,6.6-8.07c-2.24-3.19-4.33-6.28-6.29-9.26c3.86,1.21,7.83,2.24,11.98,3.22c2.34-1.92,4.47-3.79,6.27-5.76 c1.71,2.97,3.43,6.06,5.16,9.28c4.36,1.58,9.09,3.28,13.87,4.72c-3.45,1.54-7.05,3.12-11,4.4 C172.48,125.73,172.73,129.64,172.66,133.5z"></path> </g> <g> <path class="st0" d="M125.54,135.87c-2.68-3.87-5.08-7.67-7.23-11.25c-4.86-0.98-9.63-2.04-14.22-3.35 c3.9-1.88,7.54-3.96,10.89-5.97c-0.45-3.33-0.83-6.53-1.12-9.61c3.17,1.82,6.58,3.46,10.22,5.19c3.47-1.33,6.72-2.65,9.72-4.15 c0.06,3.07,0.05,6.26-0.02,9.57c3.65,2.43,7.59,4.93,11.8,7.28c-4.53,0.83-9.26,1.29-14.07,1.79 C129.76,128.75,127.78,132.25,125.54,135.87z"></path> </g> <g> <path class="st0" d="M78.66,128.06c-0.43-3.92-0.7-7.63-0.79-11.16c-3.9-1.78-7.62-3.6-11.08-5.54c4.47-0.96,8.75-2,12.88-3.21 c1.3-3,2.63-5.86,3.96-8.6c1.99,2.12,4.26,4.21,6.77,6.37c3.97-0.57,7.75-1.15,11.42-1.96c-1.6,2.77-3.31,5.62-5.15,8.57 c2.18,2.84,4.63,5.83,7.43,8.75c-4.81-0.19-9.6-0.63-14.38-1.2C86.3,122.7,82.6,125.41,78.66,128.06z"></path> </g> <g> <path class="st0" d="M41.63,112.51c1.5-3.33,2.99-6.43,4.68-9.46c-2.46-2.12-4.64-4.29-6.63-6.45c4.2-0.1,8.3-0.29,12.38-0.64 c2.57-2.33,5.09-4.55,7.63-6.72c0.74,2.1,1.6,4.32,2.78,6.53c3.69,0.23,7.46,0.25,11.1,0.21c-2.84,2.14-5.83,4.35-8.93,6.54 c0.51,2.8,1.17,5.8,2.16,8.84c-4.1-1.08-8.13-2.25-11.96-3.6C50.57,109.43,46.17,111.01,41.63,112.51z"></path> </g> <g> <path class="st0" d="M18.8,93.67c2.62-2.48,5.4-4.87,8.04-7.09c-0.99-2.11-1.81-4.2-2.35-6.27c3.34,0.52,6.84,0.9,10.27,1.2 c3.22-1.6,6.39-3.13,9.5-4.6c-0.47,1.92-0.67,3.86-0.81,5.93c3.04,0.71,6.15,1.32,9.3,1.81c-3.44,1.4-6.99,2.8-10.65,4.2 c-1,2.49-1.72,5.03-2.42,7.76c-2.9-1.54-5.59-3.17-8.16-4.84C27.38,92.46,23.13,93.1,18.8,93.67z"></path> </g> <g> <path class="st0" d="M9.47,75.09c3.19-1.69,6.28-3.26,9.37-4.75c0.2-1.87,0.52-3.69,0.99-5.47c2.5,0.82,4.94,1.6,7.63,2.27 c3.31-0.93,6.58-1.81,9.8-2.66c-1.22,1.54-2.39,3.18-3.42,4.88c2.18,0.98,4.38,1.92,6.8,2.74c-3.5,0.72-7.08,1.43-10.7,2.12 c-1.83,1.9-3.76,3.97-5.46,6.1c-1.65-1.65-3.04-3.37-4.25-5.11C16.67,75.23,12.98,75.22,9.47,75.09z"></path> </g> <g> <path class="st0" d="M10.57,58.77c3.16-1.02,6.26-1.96,9.4-2.85c0.95-1.53,2.09-3.01,3.24-4.44c1.57,0.97,3.22,1.89,5.01,2.75 c3.08-0.4,6.13-0.78,9.19-1.13c-1.69,1.17-3.48,2.42-5.06,3.73c1.23,1.09,2.73,2.12,4.22,3.11c-3.22,0.19-6.39,0.36-9.61,0.49 c-2.4,1.38-4.74,2.84-7.14,4.42c-0.47-1.59-0.85-3.16-1.01-4.74C15.95,59.74,13.26,59.28,10.57,58.77z"></path> </g> <g> <path class="st0" d="M18.67,45.45c2.92-0.52,5.83-0.99,8.71-1.42c1.45-1.19,3.04-2.32,4.63-3.42c0.79,0.97,1.76,1.92,2.79,2.83 c2.69-0.03,5.41-0.04,8.09-0.03c-1.96,0.82-4,1.71-5.92,2.66c0.51,1.06,1.24,2.1,2,3.11c-2.7-0.19-5.37-0.4-8.03-0.62 c-2.61,0.9-5.08,1.87-7.73,2.92c0.33-1.37,0.77-2.73,1.34-4.06C22.48,46.8,20.58,46.15,18.67,45.45z"></path> </g> <g> <path class="st0" d="M31.12,35.04c2.58-0.17,5.22-0.3,7.74-0.39c1.77-0.88,3.57-1.72,5.44-2.5c0.17,0.91,0.55,1.82,0.96,2.71 c2.29,0.23,4.55,0.48,6.81,0.76c-2.1,0.51-4.15,1.1-6.26,1.72c-0.06,0.97,0.02,1.93,0.22,2.88c-2.16-0.43-4.29-0.87-6.38-1.33 c-2.54,0.51-5.04,1.09-7.64,1.73c0.88-1.13,1.89-2.23,2.95-3.32C33.61,36.56,32.33,35.81,31.12,35.04z"></path> </g> <g> <path class="st0" d="M46.22,27.27c2.28,0.09,4.5,0.2,6.68,0.34c1.95-0.61,3.9-1.18,5.87-1.72c-0.26,0.83-0.45,1.64-0.48,2.46 c1.84,0.41,3.68,0.84,5.5,1.28c-2.07,0.27-4.15,0.59-6.27,0.95c-0.5,0.85-0.95,1.69-1.22,2.54c-1.63-0.58-3.23-1.17-4.78-1.76 c-2.35,0.22-4.8,0.48-7.23,0.8c1.26-0.9,2.63-1.76,4.06-2.6C47.57,28.8,46.83,28.03,46.22,27.27z"></path> </g> <g> <path class="st0" d="M62.82,21.74c1.93,0.26,3.81,0.54,5.67,0.86c2.01-0.39,4.04-0.73,6.06-1.04c-0.67,0.71-1.2,1.45-1.67,2.17 c1.42,0.52,2.86,1.07,4.28,1.63c-1.97,0.07-4.02,0.15-6.06,0.3c-0.9,0.7-1.65,1.43-2.36,2.15c-1.16-0.67-2.26-1.33-3.31-1.99 c-2.16-0.01-4.38,0.01-6.66,0.07c1.54-0.67,3.13-1.33,4.79-1.94C63.22,23.2,62.99,22.47,62.82,21.74z"></path> </g> <g> <path class="st0" d="M80.28,18.14c1.62,0.39,3.2,0.82,4.72,1.25c2.05-0.18,4.08-0.34,6.13-0.45c-0.98,0.6-1.87,1.21-2.68,1.84 c1.06,0.61,2.1,1.22,3.12,1.86c-1.88-0.13-3.78-0.2-5.76-0.25c-1.15,0.57-2.25,1.15-3.24,1.75c-0.7-0.7-1.37-1.39-2-2.08 c-1.96-0.2-3.96-0.36-6.02-0.5c1.71-0.48,3.48-0.93,5.28-1.36C79.92,19.51,80.07,18.82,80.28,18.14z"></path> </g> <g> <path class="st0" d="M98.3,16.27c1.32,0.5,2.59,1.01,3.81,1.54c2.05,0,4.08,0.03,6.11,0.09c-1.27,0.49-2.47,0.97-3.57,1.5 c0.68,0.65,1.34,1.31,1.98,1.99c-1.73-0.27-3.52-0.52-5.36-0.73c-1.4,0.43-2.75,0.86-4,1.33c-0.29-0.71-0.56-1.4-0.78-2.09 c-1.71-0.33-3.52-0.67-5.35-0.95c1.85-0.3,3.73-0.58,5.64-0.81C97.22,17.5,97.72,16.86,98.3,16.27z"></path> </g> <g> <path class="st0" d="M116.64,15.98c1.03,0.58,1.99,1.17,2.92,1.76c2.03,0.19,4.04,0.36,6.03,0.61c-1.53,0.34-3,0.72-4.39,1.12 c0.32,0.68,0.62,1.37,0.88,2.06c-1.57-0.42-3.21-0.8-4.91-1.16c-1.62,0.27-3.17,0.59-4.67,0.91c0.1-0.69,0.24-1.37,0.39-2.03 c-1.49-0.47-3.05-0.92-4.67-1.35c1.95-0.12,3.92-0.22,5.92-0.28C114.91,17.05,115.75,16.5,116.64,15.98z"></path> </g> <g> <path class="st0" d="M135.22,17.23c0.73,0.63,1.39,1.29,1.98,1.95c2,0.33,3.96,0.72,5.92,1.11c-1.82,0.22-3.53,0.42-5.21,0.69 c-0.07,0.68-0.15,1.37-0.29,2.07c-1.4-0.51-2.84-1.07-4.38-1.56c-1.8,0.12-3.55,0.27-5.24,0.46c0.49-0.65,1-1.28,1.53-1.9 c-1.24-0.58-2.56-1.15-3.96-1.69c2.03,0.03,4.08,0.13,6.15,0.22C132.84,18.1,134,17.66,135.22,17.23z"></path> </g> <g> <path class="st0" d="M153.95,20.06c0.39,0.71,0.7,1.41,0.96,2.11c1.92,0.53,3.86,1.06,5.7,1.65c-2.05,0.02-4.08,0.09-6.02,0.18 c-0.47,0.66-0.98,1.33-1.54,2c-1.15-0.67-2.41-1.3-3.72-1.95c-1.99-0.04-3.91-0.08-5.78-0.05c0.9-0.58,1.81-1.16,2.73-1.71 c-0.98-0.67-2.02-1.34-3.16-2c2.08,0.24,4.21,0.48,6.32,0.79C150.89,20.72,152.41,20.36,153.95,20.06z"></path> </g> <g> <path class="st0" d="M172.65,24.64c0.02,0.73-0.08,1.46-0.23,2.2c1.87,0.71,3.61,1.47,5.39,2.22c-2.38-0.17-4.63-0.33-6.85-0.43 c-0.92,0.61-1.89,1.22-2.92,1.84c-0.9-0.77-1.84-1.56-2.92-2.31c-2.13-0.25-4.22-0.47-6.27-0.63c1.31-0.49,2.64-0.96,3.98-1.42 c-0.64-0.77-1.38-1.53-2.23-2.29c2.17,0.42,4.28,0.9,6.46,1.38C168.87,24.99,170.73,24.8,172.65,24.64z"></path> </g> </g> <g> <path class="st0" d="M67.29,54.9c0.43-0.56,1.1-2.3,1.26-3.61l0.02-0.13l-0.07-0.11c-0.1-0.16-0.27-0.28-0.5-0.33 c-0.26-0.05-0.52-0.01-0.7,0.12l-0.09,0.06l-0.04,0.1c-0.48,1.24-1.76,3.33-4.89,3.35c-2.01,0-3.75-0.69-5.02-1.96 c-1.37-1.38-2.1-3.37-2.11-5.75c-0.01-2.31,0.67-4.2,1.97-5.46c1.18-1.15,2.82-1.76,4.73-1.77c2.68-0.02,4.29,1.07,4.8,3.32 l0.03,0.12l0.1,0.08c0.17,0.15,0.43,0.21,0.69,0.18c0.23-0.03,0.43-0.14,0.54-0.3l0.08-0.12l-0.02-0.15 c-0.2-1.44-0.34-3.02-0.37-3.63l-0.02-0.39l-0.39,0.04c-0.14,0.01-0.25-0.01-0.57-0.09c-1.26-0.34-3.23-0.59-4.55-0.59 c-2.73,0.01-5.15,0.78-7,2.23c-2.1,1.63-3.29,4.15-3.28,6.92c0.01,2.97,1.35,5.51,3.77,7.14c1.73,1.14,3.82,1.7,6.37,1.7 c0.03,0,0.07,0,0.1,0c1.69,0,3.53-0.41,4.1-0.61c0.22-0.08,0.52-0.19,0.81-0.23l0.15-0.02L67.29,54.9z"></path> <path class="st0" d="M64.89,61.5l0-0.47l-0.46,0.11c-0.27,0.06-1.72,0.07-3.01,0.08l-4.92,0.02c-0.94,0-1.77-0.01-2.9-0.06l-0.1,0 l-0.09,0.05c-0.3,0.16-0.33,0.54-0.34,0.66c-0.01,0.27,0.09,0.5,0.27,0.61l0.56,0.11c1.11,0.13,1.18,0.14,1.19,2.76l0.04,8.97 c0.01,2.6-0.03,2.61-1.16,2.75l-0.76,0.09l-0.09,0.1c-0.16,0.17-0.22,0.43-0.18,0.7c0.04,0.24,0.16,0.43,0.34,0.52l0.09,0.04 l0.1,0c1.16-0.06,2-0.09,3.12-0.09c1.01-0.01,1.85,0.01,3.33,0.06l0.09,0l0.08-0.04c0.29-0.14,0.34-0.52,0.35-0.64 c0.02-0.29-0.08-0.52-0.26-0.63l-1.03-0.13c-1.12-0.09-1.19-0.1-1.2-2.73l-0.02-3.46c0-0.19,0.01-0.27-0.02-0.28 c0.09-0.02,0.32-0.02,0.47-0.02l1.71-0.01c0.87-0.01,1.52,0.01,1.82,0.09c0.29,0.09,0.44,0.28,0.56,0.68l0.29,1.08l0.09,0.08 c0.18,0.16,0.47,0.23,0.74,0.19c0.21-0.03,0.38-0.13,0.47-0.28l0.06-0.09v-0.11c0-0.27-0.02-0.62-0.05-1.01 c-0.03-0.44-0.06-0.93-0.07-1.41c0-0.51,0.03-1.05,0.05-1.52c0.02-0.38,0.04-0.73,0.04-0.99v-0.12l-0.07-0.1 c-0.11-0.16-0.32-0.26-0.58-0.27c-0.12,0-0.47,0-0.67,0.25l-0.3,1.15c-0.12,0.51-0.23,0.55-0.38,0.61 c-0.19,0.06-0.83,0.13-2.02,0.14l-1.71,0.01c-0.21,0-0.43,0-0.43,0.04c-0.01-0.03-0.02-0.1-0.03-0.33l-0.03-5.26 c0-0.28,0-0.58-0.02-0.6c0.06-0.02,0.3-0.03,0.4-0.03l1.53-0.01c0.98,0,1.83-0.01,2.34,0.12c0.99,0.25,1.28,0.89,1.49,2.07 l0.02,0.14l0.11,0.09c0.18,0.14,0.43,0.2,0.68,0.14c0.23-0.05,0.41-0.17,0.5-0.35l0.04-0.09l-0.01-0.1 C64.92,63.82,64.89,62.63,64.89,61.5z"></path> <path class="st0" d="M144.33,55.48c0.02,0,0.04,0,0.06,0c2.47-0.01,4.75-0.94,6.43-2.6c1.7-1.69,2.63-4,2.62-6.51 c-0.01-2.37-0.83-4.56-2.31-6.16c-1.64-1.78-3.98-2.72-6.77-2.72c-0.02,0-0.04,0-0.06,0c-2.59,0.01-4.96,0.96-6.66,2.67 c-1.7,1.7-2.62,4.02-2.61,6.55C135.04,51.08,138.25,55.49,144.33,55.48z M147.89,40.57c1.44,1.43,2.27,3.83,2.29,6.59 c0.02,5-2.93,6.79-5.47,6.8c-0.01,0-0.02,0-0.03,0c-5.02,0-6.38-5.07-6.4-8.06c-0.02-5.06,3.01-6.86,5.6-6.88 C145.49,39.01,146.84,39.53,147.89,40.57z"></path> <path class="st0" d="M76.4,60.74c-0.02,0-0.04,0-0.06,0c-5.31,0.03-9.3,3.99-9.28,9.21c0.02,4.37,3.23,8.78,9.31,8.78 c0.02,0,0.04,0,0.06,0c2.46-0.01,4.75-0.94,6.43-2.6c1.7-1.69,2.63-4,2.62-6.51C85.46,65.33,82.6,60.74,76.4,60.74z M75.96,62.26 c1.6,0,2.94,0.52,3.98,1.55c1.44,1.43,2.27,3.83,2.28,6.58c0.03,5-2.93,6.79-5.47,6.8c-0.01,0-0.02,0-0.03,0 c-5.01,0-6.38-5.06-6.39-8.06c-0.02-5.06,3-6.86,5.6-6.88C75.93,62.26,75.95,62.26,75.96,62.26z"></path> <path class="st0" d="M71.68,39.61L71.68,39.61c1.22,0.08,1.29,0.09,1.3,2.75l0.05,8.97c0.01,2.62-0.03,2.63-1.15,2.74l-0.89,0.09 l-0.09,0.09c-0.17,0.17-0.23,0.43-0.19,0.71c0.04,0.24,0.17,0.43,0.34,0.52l0.08,0.04l0.32-0.01c1.27-0.05,2.04-0.08,3.03-0.08 l2.31-0.01c2.84-0.01,5.06,0,6.24,0.04l0.24,0.01l0.11-0.21c0.35-0.69,1.08-3.31,1.08-3.67c0-0.1-0.04-0.33-0.36-0.48 c-0.22-0.1-0.63-0.16-0.89,0.05l-0.11,0.15c-0.49,1.26-1.1,2.06-1.48,2.28c-0.33,0.19-0.85,0.28-2.88,0.29c-0.02,0-0.05,0-0.07,0 c-1.95,0-2.25-0.31-2.4-0.45c-0.36-0.36-0.43-0.95-0.44-2.42l-0.04-8.67c-0.01-2.67,0.05-2.67,1.18-2.77l0.61-0.06l0.17-0.06 c0.18-0.12,0.27-0.35,0.25-0.63c-0.01-0.11-0.05-0.5-0.35-0.64l-0.09-0.04l-0.1,0c-1.25,0.06-2.1,0.08-3.08,0.09 c-1.01,0.01-1.85-0.02-3.25-0.06l-0.09,0l-0.08,0.04c-0.2,0.1-0.33,0.34-0.35,0.64c-0.02,0.29,0.08,0.52,0.27,0.63L71.68,39.61z"></path> <path class="st0" d="M155.13,39.12l0.56,0.07h0c0.62,0.07,1.1,0.24,1.32,0.47c0.43,0.46,0.46,0.86,0.46,1.54l0.04,7.41 c0.01,1.2,0.03,4-0.27,4.76c-0.01,0.02-0.11,0.2-0.8,0.29l-0.81,0.09l-0.09,0.1c-0.15,0.15-0.22,0.39-0.2,0.63 c0.02,0.24,0.14,0.44,0.31,0.56l0.11,0.07l0.13-0.01c0.87-0.05,1.54-0.08,2.59-0.09c0.93,0,1.81,0.02,2.93,0.06l0.13,0.01 l0.1-0.07c0.16-0.11,0.27-0.29,0.3-0.49c0.04-0.23-0.02-0.48-0.17-0.66l-0.1-0.13l-0.95-0.08c-0.71-0.06-0.95-0.22-0.99-0.28 c-0.12-0.21-0.4-1.1-0.43-4.97l-0.03-5.43c0-0.25,0-0.55,0.01-0.83c0.39,0.44,0.91,1.04,1.38,1.6c0.42,0.48,0.8,0.93,1.05,1.21 l5.86,6.54c2.29,2.56,2.94,3.33,3.21,3.71l0.11,0.16h0.19c0.41,0,0.72-0.2,0.83-0.53l0.03-0.08l-0.01-0.09 c-0.07-0.59-0.09-3.37-0.09-4.32l-0.04-6.32c-0.01-1.16-0.03-3.87,0.31-4.58c0.05-0.05,0.35-0.22,1.13-0.35l0.47-0.07l0.09-0.08 c0.16-0.16,0.24-0.4,0.22-0.65c-0.02-0.24-0.14-0.44-0.33-0.56l-0.1-0.07l-0.12,0.01c-0.87,0.06-1.51,0.09-2.56,0.09 c-0.96-0.01-1.8-0.02-2.95-0.06l-0.07,0l-0.07,0.03c-0.21,0.08-0.36,0.27-0.4,0.52c-0.05,0.29,0.05,0.58,0.25,0.74l0.09,0.07 l0.54,0.06c1.01,0.12,1.24,0.25,1.29,0.32c0.1,0.16,0.45,1,0.47,4.95l0.02,5.35c0,0.08,0,0.17,0,0.26 c-0.76-0.79-1.56-1.67-2.54-2.74l-3.61-3.98c-2.48-2.73-3.9-4.52-4.21-5.31l-0.11-0.28l-0.3,0.05c-0.3,0.05-0.71,0.08-1.1,0.08 c-0.51,0-1.8,0.01-2.81-0.06l-0.1-0.01l-0.09,0.05c-0.18,0.1-0.31,0.28-0.35,0.52c-0.04,0.26,0.04,0.54,0.21,0.71L155.13,39.12z"></path> <path class="st0" d="M96.5,39.41l0.55,0.06c0.62,0.07,1.09,0.25,1.33,0.47c0.44,0.47,0.46,0.87,0.46,1.54l0.04,7.46 c0.01,1.19,0.02,3.97-0.27,4.72c-0.01,0.02-0.11,0.19-0.8,0.29L97,54.04l-0.09,0.09c-0.15,0.15-0.23,0.38-0.21,0.62 c0.02,0.24,0.13,0.45,0.31,0.58l0.11,0.08l0.13-0.01c0.92-0.06,1.6-0.08,2.59-0.09c0.9,0,1.74,0.01,2.93,0.06l0.13,0.01l0.11-0.08 c0.16-0.11,0.26-0.29,0.29-0.5c0.03-0.23-0.03-0.47-0.17-0.66l-0.1-0.13l-0.95-0.08c-0.71-0.06-0.95-0.22-0.99-0.29 c-0.2-0.34-0.42-1.83-0.43-4.96l-0.03-5.43c0-0.25,0-0.55,0.01-0.82c0.39,0.44,0.91,1.04,1.38,1.6c0.42,0.48,0.8,0.93,1.05,1.21 l5.86,6.54c2.28,2.55,2.93,3.33,3.21,3.72l0.11,0.16l0.2,0c0.4-0.01,0.7-0.2,0.82-0.52l0.03-0.09l-0.01-0.09 c-0.07-0.55-0.09-2.93-0.1-3.95l-0.03-6.66c-0.01-1.16-0.03-3.89,0.3-4.6c0.05-0.06,0.35-0.23,1.14-0.35l0.47-0.07l0.09-0.09 c0.16-0.16,0.24-0.41,0.21-0.66c-0.03-0.24-0.15-0.44-0.34-0.54l-0.1-0.06l-0.12,0.01c-0.84,0.05-1.49,0.08-2.57,0.08 c-0.95,0.01-1.8-0.02-2.95-0.06l-0.08,0l-0.07,0.03c-0.21,0.08-0.35,0.28-0.39,0.53c-0.05,0.29,0.05,0.57,0.25,0.74l0.08,0.07 l0.53,0.06c1.05,0.12,1.26,0.27,1.29,0.32c0.11,0.16,0.46,1.01,0.46,4.96l0.03,5.37c0,0.08,0,0.16,0,0.24 c-0.79-0.82-1.63-1.74-2.65-2.86l-3.58-3.94c-0.91-1.01-3.68-4.07-4.14-5.23l-0.11-0.28l-0.3,0.05c-0.28,0.04-0.68,0.07-1.09,0.08 h-0.12c-0.52,0-1.74,0-2.7-0.06l-0.1-0.01l-0.09,0.05c-0.19,0.1-0.31,0.28-0.35,0.52c-0.04,0.27,0.04,0.54,0.21,0.71L96.5,39.41z"></path> <path class="st0" d="M117.64,41.93c0.24,0.05,0.47,0.01,0.64-0.11l0.08-0.06l0.04-0.09c0.24-0.56,0.47-1.09,1.03-1.6 c0.57-0.53,2.16-0.53,2.83-0.54l1.38-0.01c0.11,0,0.28,0,0.37,0.01c0.01,0.09,0.01,0.26,0.01,0.41l0.05,11.14 c0.02,2.63-0.12,2.65-1.2,2.75l-0.91,0.08l-0.17,0.06c-0.2,0.13-0.32,0.38-0.3,0.66c0.01,0.28,0.14,0.51,0.33,0.61l0.09,0.04 l0.1,0c1.61-0.06,2.49-0.09,3.48-0.09c1-0.01,1.86,0.01,3.28,0.06l0.1,0l0.09-0.04c0.3-0.15,0.34-0.53,0.34-0.65 c0.01-0.28-0.08-0.51-0.27-0.62l-0.98-0.13c-1.1-0.09-1.17-0.1-1.18-2.73l-0.05-11.17c0-0.15,0-0.29,0-0.38 c0.09-0.01,0.25-0.01,0.35-0.01l1.79-0.01c0.02,0,0.05,0,0.07,0c1.27,0,2.13,0.18,2.63,0.54c0.16,0.11,0.37,0.64,0.48,1.55 l0.01,0.12l0.08,0.09c0.19,0.21,0.51,0.25,0.73,0.22c0.25-0.03,0.45-0.16,0.54-0.35l0.05-0.1l-0.01-0.11 c-0.07-0.71,0.09-2.68,0.35-3.65l0.04-0.14l-0.07-0.13c-0.16-0.32-0.67-0.36-0.93-0.25l-0.12,0.05l-0.06,0.11 c-0.26,0.45-0.29,0.51-1.64,0.52l-10.29,0.05c-1.24,0-1.58-0.05-1.66-0.46l-0.02-0.12l-0.08-0.08c-0.23-0.22-0.76-0.18-0.96-0.03 L118,37.41l-0.03,0.15c-0.17,0.99-0.53,2.56-0.92,3.66L117,41.37l0.07,0.14C117.17,41.72,117.39,41.87,117.64,41.93z"></path> <path class="st0" d="M186.91,76.41c-1.15-0.13-1.2-0.14-1.21-2.79l-0.04-8.87c-0.02-2.71,0.07-2.72,1.17-2.82l0.73-0.06l0.08-0.06 c0.18-0.12,0.27-0.35,0.25-0.63c-0.01-0.11-0.05-0.49-0.34-0.64l-0.09-0.05l-0.1,0c-1.25,0.06-2.1,0.08-3.1,0.09 c-1.06,0-1.9-0.01-3.15-0.06l-0.09,0l-0.08,0.04c-0.3,0.15-0.34,0.53-0.35,0.64c-0.02,0.28,0.08,0.51,0.26,0.63l0.81,0.11 c1.1,0.08,1.19,0.09,1.2,2.81l0.04,8.87c0.01,2.65-0.05,2.66-1.19,2.8l-0.75,0.09l-0.09,0.09c-0.16,0.16-0.24,0.42-0.19,0.7 c0.04,0.25,0.16,0.44,0.34,0.53l0.09,0.04l0.1,0c1.25-0.06,2.1-0.08,3.15-0.09c0.99,0,1.85,0.02,3.1,0.06l0.1,0l0.09-0.04 c0.19-0.1,0.32-0.33,0.34-0.63c0.02-0.28-0.07-0.52-0.25-0.64L186.91,76.41z"></path> <path class="st0" d="M177.13,59.96l-0.13,0.05l-0.07,0.12c-0.26,0.46-0.3,0.51-1.63,0.52l-10.28,0.05 c-1.23,0.01-1.58-0.05-1.67-0.46l-0.02-0.12l-0.09-0.08c-0.24-0.23-0.76-0.16-0.95-0.04l-0.13,0.09l-0.03,0.16 c-0.17,1-0.54,2.57-0.92,3.65l-0.05,0.15l0.08,0.14c0.11,0.21,0.32,0.36,0.58,0.42c0.24,0.05,0.47,0.01,0.64-0.12l0.12-0.15 c0.24-0.56,0.47-1.08,1.03-1.59c0.57-0.53,2.16-0.54,2.83-0.54l1.38-0.01c0.1,0,0.27,0,0.37,0.01c0.01,0.09,0.01,0.25,0.01,0.41 l0.06,11.14c0.01,2.63-0.12,2.65-1.2,2.75l-0.9,0.07L166,76.64c-0.21,0.13-0.32,0.38-0.31,0.67c0.02,0.28,0.15,0.51,0.35,0.61 l0.08,0.04l0.09,0c1.6-0.06,2.48-0.09,3.48-0.09c1-0.01,1.85,0.01,3.28,0.06l0.1,0l0.08-0.04c0.29-0.15,0.34-0.53,0.34-0.64 c0.01-0.28-0.08-0.51-0.26-0.63l-0.98-0.13c-1.1-0.09-1.17-0.09-1.18-2.74l-0.05-11.16c0-0.15,0-0.29,0-0.38 c0.09-0.01,0.25-0.01,0.35-0.01l1.78-0.01c1.28,0.01,2.19,0.17,2.7,0.53c0.16,0.12,0.37,0.64,0.48,1.56l0.01,0.11l0.08,0.09 c0.18,0.21,0.49,0.25,0.71,0.22c0.26-0.03,0.47-0.16,0.56-0.36l0.05-0.1l-0.01-0.11c-0.08-0.69,0.08-2.66,0.34-3.65l0.04-0.13 l-0.06-0.12C177.89,59.88,177.38,59.87,177.13,59.96z"></path> <path class="st0" d="M200.13,60.12c-0.02,0-0.04,0-0.06,0c-2.59,0.01-4.96,0.96-6.66,2.67c-1.7,1.7-2.62,4.02-2.61,6.54 c0.02,4.37,3.22,8.77,9.3,8.77c0.02,0,0.04,0,0.06,0c5.18-0.03,9.07-3.95,9.05-9.12C209.19,64.72,206.34,60.12,200.13,60.12z M200.45,76.59c-2.1,0-3.74-0.89-4.9-2.66c-0.94-1.43-1.48-3.4-1.49-5.4c-0.01-2.31,0.59-4.1,1.8-5.32 c0.98-0.99,2.36-1.55,3.8-1.56c0.01,0,0.02,0,0.04,0c4.59,0,6.24,4.38,6.26,8.13c0.01,2.18-0.57,3.96-1.68,5.17 c-0.96,1.05-2.31,1.63-3.79,1.63C200.47,76.59,200.46,76.59,200.45,76.59z"></path> <path class="st0" d="M229.98,60.36l-0.1-0.06l-0.12,0.01c-0.87,0.05-1.5,0.08-2.57,0.09c-0.92,0-1.77-0.01-2.94-0.06l-0.07,0 l-0.07,0.02c-0.21,0.07-0.36,0.27-0.41,0.51c-0.05,0.29,0.04,0.58,0.24,0.75l0.08,0.07l0.54,0.07c1.05,0.12,1.26,0.26,1.29,0.31 c0.13,0.21,0.44,1.11,0.47,4.96l0.03,5.33c0,0.08,0,0.18,0,0.27c-0.86-0.88-1.78-1.89-2.89-3.12l-3.31-3.65 c-2.45-2.71-3.85-4.47-4.16-5.24l-0.11-0.27l-0.29,0.04c-0.29,0.04-0.69,0.07-1.1,0.08c-1.16,0.01-2.11-0.01-2.81-0.06l-0.1-0.01 l-0.09,0.05c-0.18,0.09-0.31,0.28-0.35,0.51c-0.04,0.26,0.03,0.54,0.2,0.71l0.09,0.1l0.56,0.06c0.63,0.08,1.1,0.24,1.33,0.47 c0.43,0.47,0.46,0.87,0.46,1.54l0.04,7.39c0.01,1.2,0.03,4.01-0.27,4.79c0,0.01-0.09,0.18-0.8,0.28l-0.81,0.1l-0.09,0.1 c-0.15,0.15-0.22,0.38-0.2,0.62c0.02,0.24,0.13,0.45,0.31,0.57l0.11,0.08l0.13-0.01c0.9-0.06,1.58-0.08,2.59-0.09 c0.92,0,1.8,0.02,2.92,0.06l0.13,0l0.1-0.07c0.16-0.11,0.26-0.29,0.29-0.49c0.04-0.23-0.02-0.47-0.16-0.66l-0.1-0.13L217,76.26 c-0.71-0.05-0.95-0.22-0.99-0.28c-0.26-0.44-0.42-2.35-0.43-4.97l-0.03-5.42c0-0.27,0-0.56,0.01-0.82c0.45,0.5,1.05,1.2,1.56,1.8 c0.34,0.4,0.65,0.76,0.86,1l5.86,6.55c1.9,2.12,2.86,3.23,3.22,3.71l0.11,0.15h0.19c0.4,0,0.71-0.2,0.83-0.52l0.03-0.09 l-0.01-0.09c-0.04-0.28-0.08-1.24-0.1-4.31l-0.03-6.28c-0.01-1.17-0.03-3.89,0.3-4.61c0.05-0.05,0.36-0.23,1.13-0.35l0.47-0.07 l0.09-0.09c0.16-0.16,0.24-0.41,0.21-0.66C230.28,60.67,230.16,60.47,229.98,60.36z"></path> <path class="st0" d="M125.38,60.81l-0.12,0.01c-0.88,0.05-1.51,0.08-2.57,0.08h0c-0.99,0.01-1.86-0.02-2.95-0.06l-0.08,0 l-0.07,0.03c-0.21,0.08-0.36,0.28-0.4,0.53c-0.05,0.28,0.05,0.57,0.24,0.73l0.09,0.07l0.54,0.06c1.05,0.12,1.25,0.27,1.29,0.32 c0.22,0.34,0.46,1.82,0.47,4.95l0.03,5.38c0,0.07,0,0.15,0,0.22c-0.82-0.85-1.7-1.81-2.76-2.98l-3.4-3.75 c-2.47-2.73-3.89-4.51-4.21-5.29l-0.11-0.27l-0.29,0.04c-0.31,0.05-0.71,0.08-1.1,0.08h-0.12c-0.53,0-1.73,0-2.7-0.06l-0.1-0.01 l-0.09,0.05c-0.19,0.09-0.32,0.28-0.35,0.52c-0.04,0.27,0.04,0.54,0.21,0.71l0.09,0.09l0.55,0.07c0.62,0.07,1.1,0.24,1.33,0.47 c0.43,0.46,0.46,0.87,0.46,1.54l0.04,7.47c0.01,1.18,0.02,3.95-0.27,4.7c-0.01,0.03-0.12,0.2-0.81,0.29l-0.81,0.09l-0.09,0.09 c-0.15,0.15-0.22,0.39-0.2,0.63c0.02,0.24,0.14,0.45,0.32,0.57l0.1,0.07l0.13-0.01c0.85-0.05,1.52-0.08,2.59-0.09 c0.9,0,1.77,0.02,2.92,0.06l0.13,0l0.1-0.08c0.16-0.12,0.27-0.3,0.3-0.51c0.03-0.23-0.03-0.46-0.17-0.64l-0.1-0.13l-0.95-0.09 c-0.71-0.06-0.95-0.22-0.99-0.29c-0.15-0.25-0.4-1.23-0.43-4.96l-0.02-5.43c0-0.32,0-0.59,0.01-0.82 c0.44,0.49,1.03,1.17,1.53,1.76c0.36,0.42,0.68,0.79,0.9,1.04l5.87,6.55c1.9,2.13,2.86,3.24,3.21,3.71l0.11,0.16l0.19,0 c0.41,0,0.72-0.2,0.83-0.53l0.03-0.08l-0.01-0.08c-0.03-0.28-0.08-1.24-0.09-4.32l-0.04-6.32c-0.01-1.16-0.03-3.87,0.3-4.58 c0.05-0.06,0.36-0.23,1.14-0.35l0.47-0.07l0.09-0.09c0.16-0.16,0.24-0.41,0.21-0.66c-0.03-0.23-0.15-0.43-0.33-0.54L125.38,60.81z "></path> <path class="st0" d="M86.73,55.44c1.25-0.05,2.1-0.08,3.15-0.09c1-0.01,1.85,0.02,3.1,0.06l0.1,0l0.09-0.04 c0.3-0.15,0.34-0.53,0.35-0.64c0.02-0.28-0.08-0.51-0.26-0.63l-0.79-0.12c-1.16-0.13-1.21-0.14-1.22-2.79l-0.04-8.86 c-0.01-2.72,0.07-2.73,1.17-2.82L93,39.45l0.17-0.06c0.18-0.12,0.28-0.35,0.26-0.63c-0.01-0.11-0.05-0.49-0.35-0.64L93,38.07 l-0.1,0c-1.25,0.05-2.1,0.08-3.1,0.09c-1.05,0-1.9-0.01-3.15-0.06l-0.09,0l-0.08,0.04c-0.2,0.1-0.33,0.33-0.35,0.63 c-0.02,0.29,0.08,0.52,0.26,0.65l0.08,0.05l0.72,0.06c1.1,0.08,1.19,0.09,1.2,2.81l0.04,8.87c0.01,2.65-0.06,2.66-1.19,2.8 l-0.76,0.09l-0.09,0.09c-0.16,0.16-0.23,0.42-0.18,0.7c0.04,0.25,0.16,0.44,0.34,0.52l0.09,0.04L86.73,55.44z"></path> <path class="st0" d="M104.8,60.98l-0.1-0.06l-0.12,0.01c-0.92,0.05-1.58,0.08-2.61,0.08h0c-0.92,0.01-1.83-0.02-2.85-0.06 L99,60.95l-0.1,0.07c-0.16,0.11-0.27,0.29-0.3,0.51c-0.03,0.24,0.03,0.47,0.17,0.64l0.1,0.12l0.78,0.06 c0.59,0.05,0.89,0.2,0.96,0.33c0.13,0.22,0.43,1.16,0.45,4.97l0.01,2.86c0.01,2.32-0.52,4.09-1.54,5.12 c-0.75,0.76-1.79,1.14-3.08,1.15c-0.02,0-0.04,0-0.05,0c-1.39,0-2.44-0.36-3.19-1.11c-1-0.99-1.5-2.67-1.51-5.14l-0.02-5.38 c-0.01-2.67,0.07-2.68,1.15-2.77l0.7-0.06l0.08-0.06c0.18-0.12,0.27-0.36,0.25-0.63c-0.02-0.29-0.15-0.52-0.35-0.61l-0.08-0.04 l-0.09,0c-1.22,0.05-2.05,0.08-3.07,0.09c-1,0-1.86-0.02-3.1-0.06l-0.09,0l-0.08,0.04c-0.2,0.1-0.33,0.33-0.35,0.63 c-0.02,0.27,0.08,0.5,0.26,0.62l0.08,0.05l0.72,0.05c1.08,0.09,1.16,0.09,1.18,2.76l0.03,5.88c0.02,3.07,0.67,4.97,2.12,6.16 c1.13,0.95,2.77,1.43,4.86,1.43c0.03,0,0.06,0,0.09,0c2.02-0.01,3.96-0.76,5.07-1.96c1.24-1.34,1.83-3.37,1.83-6.22l-0.01-2.81 c-0.01-1.14-0.02-4.18,0.3-4.93c0.07-0.15,0.39-0.34,0.94-0.38l0.76-0.07l0.1-0.12c0.14-0.18,0.21-0.44,0.17-0.68 C105.08,61.25,104.97,61.08,104.8,60.98z"></path> <path class="st0" d="M140.61,61.51c-1.87-0.67-3.9-0.75-5.65-0.74c-2.02,0.01-4.03,0.08-6.33,0.23l-0.11,0.02 c-0.24,0.09-0.4,0.31-0.42,0.59c-0.03,0.29,0.11,0.57,0.34,0.71l0.7,0.12c0.68,0.09,0.86,0.19,0.87,2.04l0.05,9.46 c0.01,2.58-0.03,2.59-1.17,2.75l-0.7,0.09l-0.09,0.09c-0.16,0.16-0.23,0.42-0.19,0.7c0.04,0.25,0.17,0.44,0.34,0.52l0.09,0.04 l0.1,0c1.2-0.06,2.1-0.08,3.12-0.09c0.37-0.02,0.86,0.03,1.43,0.07c0.78,0.05,1.67,0.11,2.58,0.11c0.03,0,0.06,0,0.09,0 c1.59-0.01,3.89-0.24,5.79-1.27c2.92-1.59,4.58-4.42,4.56-7.78C145.98,65.57,143.97,62.7,140.61,61.51z M142.74,69.25 c0.01,2.31-0.52,4.13-1.59,5.4c-1.13,1.35-2.83,2.04-5.06,2.05c-1.53,0.01-2.34-0.23-2.79-0.85c-0.36-0.5-0.43-1.2-0.44-2.49 l-0.04-9.19c0-0.95,0.04-1.49,0.08-1.59c0.09-0.06,0.73-0.28,2.27-0.29c0.02,0,0.05,0,0.07,0 C142.16,62.29,142.73,67.62,142.74,69.25z"></path> <path class="st0" d="M161.71,76.54c-0.82-0.09-1.09-0.22-1.84-2.39l-3.68-10.56c-0.32-0.91-0.65-1.85-0.92-2.75 c-0.09-0.31-0.37-0.5-0.74-0.5h-0.18l-0.11,0.13c-0.26,0.31-0.62,0.69-1.12,0.84l-0.32,0.1l0.06,0.33c0.06,0.3-0.08,0.74-0.4,1.57 l-2.53,6.74c-0.71,1.92-1.28,3.3-1.69,4.32c-0.19,0.47-0.36,0.88-0.5,1.24c-0.31,0.8-0.78,0.95-1.19,0.99l-0.94,0.09l-0.09,0.07 c-0.16,0.13-0.24,0.34-0.23,0.59c0,0.1,0.04,0.46,0.31,0.64l0.1,0.07l0.7-0.03c0.57-0.03,1.22-0.06,1.81-0.06l0.81,0.01 c0.74,0.01,1.29,0.02,1.78,0.05l0.1,0.01L151,78c0.22-0.1,0.37-0.32,0.39-0.59c0.03-0.28-0.08-0.54-0.28-0.69l-0.08-0.06 l-0.93-0.08c-0.32-0.02-0.39-0.07-0.38-0.12c0-0.13,0.06-0.56,0.52-1.95l0.86-2.61c0.12-0.35,0.12-0.35,0.6-0.35l3.79-0.02 c0.55,0,0.55,0,0.67,0.36l1.12,3.38c0.16,0.49,0.31,0.97,0.33,1.13c-0.03,0.03-0.18,0.11-0.56,0.15l-0.73,0.08l-0.18,0.07 c-0.19,0.13-0.3,0.38-0.28,0.66c0.02,0.28,0.16,0.5,0.37,0.61l0.09,0.04l0.38-0.02c0.68-0.03,1.54-0.07,2.59-0.08 c1.12-0.01,1.99,0.01,3.02,0.06l0.13,0.01l0.11-0.08c0.21-0.15,0.27-0.44,0.27-0.66c-0.01-0.25-0.11-0.46-0.29-0.58L161.71,76.54z M155.43,69.78c-0.06,0.01-0.15,0.01-0.28,0.01l-3.09,0.01c-0.05,0-0.13,0-0.21,0c0.01-0.04,0.02-0.07,0.03-0.09l1.56-4.34 c0.09-0.26,0.18-0.49,0.26-0.68c0.08,0.24,0.17,0.5,0.26,0.77l1.38,4.05C155.39,69.63,155.41,69.72,155.43,69.78z"></path> </g> </g> </svg> 