<svg xmlns="http://www.w3.org/2000/svg" viewBox="0 0 100 100" width="100" height="100">
  <rect width="100" height="100" fill="#ffffff"/>
  <g transform="translate(50 50) scale(0.185) translate(-187.5 -187.5)">
    <g fill="#000000" fill-opacity="1">
      <g transform="matrix(0.75, 0, 0, 0.75, 0.0000045, 0)">
        <rect x="12.5" y="41.3" width="77.1" height="416.3"/>
        <rect x="154.2" y="41.3" width="77.1" height="416.3"/>
        <path fill-rule="evenodd" d="M 298.4 39.6 L 307.1 39.6 C 329.2 39.6, 362.6 47.9, 375.5 53.8 C 391.8 60.4, 420.9 77.1, 436.3 89.6 C 452.2 104.2, 473 133.4, 483 161.3 C 489.7 179.2, 497.2 208.4, 497.2 249.2 C 497.2 290.1, 489.7 319.2, 483 338 C 473 365.1, 452.2 394.3, 436.3 409.7 C 420.9 422.2, 391.8 438.8, 375.5 445.5 C 362.6 451.3, 329.2 458.8, 303.8 458.8 L 298.4 458.8 Z M 298.4 117.9 C 298.4 117.1, 338.8 122.5, 346.7 126.7 C 357.2 130.9, 375.5 140.9, 385.1 148.8 C 395.1 158, 407.6 176.7, 412.2 195 C 415.9 206.3, 420.5 224.2, 418.8 249.2 C 420.5 274.2, 415.9 292.1, 412.6 304.2 C 407.6 321.7, 395.1 340.5, 385.1 350.1 C 375.5 358.4, 357.2 368.4, 346.7 372.6 C 338.8 376.7, 318 381.3, 298.4 380.5 Z"/>
      </g>
    </g>
  </g>
</svg>
