<svg width="1116" height="368" viewBox="0 0 1116 368" fill="none" xmlns="http://www.w3.org/2000/svg">
<g clip-path="url(#clip0_358_47)">
<path d="M0 288V208.576L103.791 0H245V79.461L141.261 288H0Z" fill="black"/>
<path d="M489.663 285.31H446.537V257.358H445.738C439.615 269.338 430.697 277.989 418.984 283.314C407.27 288.372 394.891 290.901 381.847 290.901C365.608 290.901 351.366 288.105 339.12 282.515C327.14 276.658 317.157 268.805 309.171 258.955C301.185 249.105 295.195 237.525 291.202 224.214C287.209 210.638 285.212 196.129 285.212 180.689C285.212 162.054 287.741 145.948 292.799 132.371C297.857 118.794 304.512 107.613 312.765 98.8285C321.284 90.0435 330.867 83.6544 341.516 79.6612C352.431 75.4018 363.478 73.2721 374.659 73.2721C381.048 73.2721 387.571 73.9377 394.226 75.2687C400.881 76.3336 407.27 78.1971 413.393 80.8592C419.516 83.5213 425.107 86.9821 430.165 91.2415C435.489 95.2347 439.881 100.026 443.342 105.617H444.141V0.196777H489.663V285.31ZM330.734 184.283C330.734 193.068 331.799 201.72 333.929 210.238C336.325 218.757 339.785 226.344 344.311 232.999C349.103 239.655 355.093 244.979 362.28 248.972C369.468 252.965 377.987 254.962 387.837 254.962C397.953 254.962 406.605 252.832 413.793 248.573C421.246 244.314 427.236 238.723 431.762 231.802C436.554 224.88 440.014 217.16 442.144 208.641C444.54 199.856 445.738 190.938 445.738 181.887C445.738 158.992 440.547 141.156 430.165 128.378C420.049 115.6 406.205 109.211 388.635 109.211C377.987 109.211 368.936 111.474 361.482 115.999C354.294 120.259 348.304 125.982 343.512 133.17C338.987 140.091 335.659 148.078 333.529 157.129C331.666 165.914 330.734 174.965 330.734 184.283Z" fill="black"/>
<path d="M696.242 239.389C696.242 244.979 696.907 248.972 698.238 251.368C699.836 253.764 702.764 254.962 707.023 254.962C708.354 254.962 709.952 254.962 711.815 254.962C713.679 254.962 715.808 254.696 718.204 254.163V285.71C716.607 286.242 714.477 286.774 711.815 287.307C709.419 288.105 706.89 288.771 704.228 289.303C701.566 289.836 698.904 290.235 696.242 290.501C693.58 290.768 691.317 290.901 689.453 290.901C680.136 290.901 672.416 289.037 666.293 285.31C660.17 281.583 656.177 275.061 654.313 265.744C645.262 274.529 634.081 280.918 620.771 284.911C607.726 288.904 595.081 290.901 582.835 290.901C573.518 290.901 564.6 289.57 556.081 286.908C547.562 284.512 539.975 280.918 533.32 276.126C526.931 271.068 521.74 264.812 517.746 257.358C514.019 249.638 512.156 240.72 512.156 230.604C512.156 217.825 514.419 207.443 518.944 199.457C523.736 191.47 529.859 185.214 537.313 180.689C545.033 176.163 553.552 172.969 562.869 171.105C572.453 168.975 582.037 167.378 591.62 166.313C599.873 164.716 607.726 163.651 615.18 163.119C622.634 162.32 629.156 161.122 634.747 159.525C640.603 157.928 645.129 155.532 648.324 152.337C651.784 148.876 653.515 143.818 653.515 137.163C653.515 131.306 652.051 126.515 649.122 122.788C646.46 119.061 642.999 116.265 638.74 114.402C634.747 112.272 630.221 110.941 625.163 110.409C620.105 109.61 615.313 109.211 610.788 109.211C598.009 109.211 587.494 111.873 579.241 117.197C570.989 122.521 566.33 130.774 565.265 141.955H519.743C520.542 128.644 523.736 117.596 529.327 108.811C534.917 100.026 541.972 92.9718 550.491 87.6475C559.276 82.3233 569.125 78.5963 580.04 76.4666C590.955 74.3369 602.136 73.272 613.583 73.272C623.699 73.272 633.682 74.3369 643.532 76.4666C653.382 78.5963 662.167 82.0571 669.887 86.8489C677.873 91.6407 684.262 97.8967 689.054 105.617C693.846 113.071 696.242 122.255 696.242 133.17V239.389ZM650.72 181.887C643.798 186.412 635.279 189.208 625.163 190.272C615.047 191.071 604.931 192.402 594.815 194.266C590.023 195.064 585.364 196.262 580.839 197.859C576.313 199.191 572.32 201.187 568.859 203.849C565.398 206.245 562.603 209.573 560.473 213.832C558.61 217.825 557.678 222.75 557.678 228.607C557.678 233.665 559.142 237.924 562.071 241.385C564.999 244.846 568.46 247.641 572.453 249.771C576.712 251.634 581.238 252.965 586.03 253.764C591.088 254.563 595.614 254.962 599.607 254.962C604.665 254.962 610.122 254.297 615.979 252.965C621.835 251.634 627.293 249.372 632.351 246.177C637.675 242.982 642.068 238.989 645.528 234.197C648.989 229.139 650.72 223.017 650.72 215.829V181.887Z" fill="black"/>
<path d="M730.449 0.196777H775.971V43.3233H730.449V0.196777ZM730.449 78.8626H775.971V285.31H730.449V78.8626Z" fill="black"/>
<path d="M810.796 0.196777H856.319V285.31H810.796V0.196777Z" fill="black"/>
<path d="M867.185 78.8625H917.099L971.007 232.999H971.806L1024.12 78.8625H1071.64L991.373 296.491C987.646 305.809 983.919 314.727 980.192 323.246C976.731 331.764 972.338 339.218 967.014 345.607C961.956 352.263 955.567 357.454 947.847 361.181C940.127 365.174 930.277 367.171 918.297 367.171C907.649 367.171 897.133 366.372 886.751 364.775V326.44C890.478 326.973 894.072 327.505 897.533 328.037C900.993 328.836 904.587 329.235 908.314 329.235C913.639 329.235 918.031 328.57 921.492 327.239C924.953 325.908 927.748 323.911 929.878 321.249C932.273 318.853 934.27 315.925 935.867 312.464C937.465 309.003 938.929 305.01 940.26 300.484L945.451 284.512L867.185 78.8625Z" fill="black"/>
<path d="M1107.62 96.6005L1101.51 82.3601H1104.28L1108.4 92.46L1112.5 82.3601H1115.27L1109.17 96.6005H1107.62ZM1100.83 96.6005V82.3601H1103.68V96.6005H1100.83ZM1113.1 96.6005V82.3601H1115.94V96.6005H1113.1ZM1091.18 96.6005V83.5984H1094.02V96.6005H1091.18ZM1086.84 84.798V82.3601H1098.36V84.798H1086.84Z" fill="#161618"/>
</g>
<defs>
<clipPath id="clip0_358_47">
<rect width="1116" height="368" fill="black"/>
</clipPath>
</defs>
</svg>
